<svg id="Layer_1" data-name="Layer 1" xmlns="http://www.w3.org/2000/svg" xmlns:xlink="http://www.w3.org/1999/xlink" viewBox="0 0 92.48 162.91"><defs><style>.cls-1{fill:#d77f59;}.cls-1,.cls-2,.cls-3{stroke:#a35b21;stroke-miterlimit:10;}.cls-2{opacity:0.59;fill:url(#linear-gradient);}.cls-3{fill:#fff;stroke-width:2px;}</style><linearGradient id="linear-gradient" x1="655.62" y1="339.6" x2="655.62" y2="408.54" gradientUnits="userSpaceOnUse"><stop offset="0" stop-color="#fff"/><stop offset="0" stop-color="#fff"/><stop offset="0.32" stop-color="#fff" stop-opacity="0.58"/><stop offset="0.58" stop-color="#fff" stop-opacity="0.27"/><stop offset="0.76" stop-color="#fff" stop-opacity="0.07"/><stop offset="0.85" stop-color="#fff" stop-opacity="0"/></linearGradient></defs><title>medium-amber-pint</title><path class="cls-1" d="M721.31,330.3s4.91,19.74-4.49,51.63-6.06,69.65-6.06,69.65-27.8,15.73-55.93,0c-.19,0,3.35-37.76-6.06-69.65s-4.43-51.63-4.43-51.63S678.71,330.45,721.31,330.3Z" transform="translate(-636.65 -297.62)"/><path class="cls-2" d="M648.47,339.6c-.14.15,5.44,2.12,15,3-10.07,12.7-4.35,65.92-4.35,65.92a101.2,101.2,0,0,0-4.55-20.65C651.37,379,645.93,356.25,648.47,339.6Z" transform="translate(-636.65 -297.62)"/><path class="cls-3" d="M718.34,314.37a8.89,8.89,0,0,0-2.05.24,14.18,14.18,0,0,0-13.17-9,14,14,0,0,0-9,3.28c-3.56-6.15-9.77-10.23-16.84-10.23-7.82,0-14.59,5-17.88,12.25a11.15,11.15,0,0,0-3.8-.67,11.31,11.31,0,0,0-11.26,11.35,11.42,11.42,0,0,0,.55,3.51c-.18,0-.36,0-.55,0-3.68,0-6.67,3.32-6.67,7.41s3,7.41,6.67,7.41,6.67-3.32,6.67-7.41c0-.18,0-.36,0-.53a11.19,11.19,0,0,0,9,.11c3.47,6.62,9.92,11.08,17.31,11.08a18.37,18.37,0,0,0,9.59-2.72V360a2.31,2.31,0,1,0,4.59,0V336.55a22.3,22.3,0,0,0,3.37-5,14.11,14.11,0,0,0,3.31,1.79v48.43a4.4,4.4,0,1,0,8.76,0v-48a14,14,0,0,0,3.82-1.71,9.45,9.45,0,0,0,7.64,4.08c5.41,0,9.8-4.88,9.8-10.89S723.75,314.37,718.34,314.37Z" transform="translate(-636.65 -297.62)"/><path class="cls-1" d="M655,446.58s-1.51,3.43-.25,5.44c0,0,23.62,18,56,0a5.34,5.34,0,0,0-.25-5.44S681.89,463.18,655,446.58Z" transform="translate(-636.65 -297.62)"/></svg>