<svg id="Layer_1" data-name="Layer 1" xmlns="http://www.w3.org/2000/svg" xmlns:xlink="http://www.w3.org/1999/xlink" viewBox="0 0 18.86 33.02"><defs><linearGradient id="linear-gradient" x1="644.75" y1="-144.83" x2="644.75" y2="-158.61" gradientTransform="matrix(1, 0, 0, -1, -636.65, -133.62)" gradientUnits="userSpaceOnUse"><stop offset="0" stop-color="#fff"/><stop offset="0.32" stop-color="#fff" stop-opacity="0.58"/><stop offset="0.58" stop-color="#fff" stop-opacity="0.27"/><stop offset="0.76" stop-color="#fff" stop-opacity="0.07"/><stop offset="0.85" stop-color="#fff" stop-opacity="0"/></linearGradient></defs><title>marker-2</title><path d="M21.23,9.35s1,4-.9,10.32A43.62,43.62,0,0,0,19.12,33.6s-5.56,3.15-11.18,0c0,0,.67-7.55-1.22-13.93S5.84,9.35,5.84,9.35,12.71,9.38,21.23,9.35Z" transform="translate(-4.13 -2.64)" style="fill:#f49f44;stroke:#c6762e;stroke-miterlimit:10;stroke-width:0.5px"/><path d="M6.66,11.21a10.56,10.56,0,0,0,3,.6C7.65,14.35,8.79,25,8.79,25a19.55,19.55,0,0,0-.91-4.13C7.24,19.09,6.16,14.54,6.66,11.21Z" transform="translate(-4.13 -2.64)" style="stroke:#c6762e;stroke-miterlimit:10;stroke-width:0.5px;opacity:0.5899999737739563;isolation:isolate;fill:url(#linear-gradient)"/><path d="M20.64,6.16a1.84,1.84,0,0,0-.41,0,2.84,2.84,0,0,0-2.64-1.8,2.8,2.8,0,0,0-1.8.66A3.92,3.92,0,0,0,12.43,3,4,4,0,0,0,8.85,5.47a2.17,2.17,0,0,0-.76-.13A2.25,2.25,0,0,0,5.84,7.61a2.43,2.43,0,0,0,.11.7H5.84A1.41,1.41,0,0,0,4.5,9.79a1.41,1.41,0,0,0,1.34,1.48A1.41,1.41,0,0,0,7.17,9.79V9.68a2.25,2.25,0,0,0,1.8,0,4,4,0,0,0,3.46,2.21,3.68,3.68,0,0,0,1.92-.54v3.91a.47.47,0,0,0,.41.51.46.46,0,0,0,.51-.41V10.6a4.17,4.17,0,0,0,.67-1,2.89,2.89,0,0,0,.67.36v9.68a.88.88,0,1,0,1.75.17V10a2.6,2.6,0,0,0,.76-.34,1.91,1.91,0,0,0,1.53.82,2.08,2.08,0,0,0,2-2.18A2.09,2.09,0,0,0,20.64,6.16Z" transform="translate(-4.13 -2.64)" style="fill:#fff;stroke:#c6762e;stroke-miterlimit:10;stroke-width:0.75px"/><path d="M8,32.6s-.3.69,0,1.09c0,0,4.72,3.6,11.2,0a1.07,1.07,0,0,0-.05-1.09S13.35,35.92,8,32.6Z" transform="translate(-4.13 -2.64)" style="fill:#f49f44;stroke:#c6762e;stroke-miterlimit:10;stroke-width:0.75px"/></svg>