<svg class="web-link-icon" width="50" height="50" xmlns="http://www.w3.org/2000/svg" viewBox="0 0 24 24">
    <defs>
        <style>
            .cls-1 {
                fill: #903030;
            }

            .cls-2 {
                fill: #fff;
                opacity:100%;
            }
        </style>
    </defs>
    <title>link</title>
    <path id="facebook-4" class="cls-1" d="M12,0A12,12,0,1,0,24,12,12,12,0,0,0,12,0Z" />
    <path id="link-1" class="cls-2" d="M8.35,9.94a4,4,0,0,1,6.22.62L13.15,12a2.13,2.13,0,0,0-2.41-1.22,2.09,2.09,0,0,0-1,.56L7,14a2.11,2.11,0,1,0,3,3l.83-.83a5.35,5.35,0,0,0,2.37.36l-1.84,1.84a4,4,0,0,1-5.71-5.72Zm4.3-4.3L10.8,7.48a5.36,5.36,0,0,1,2.37.36L14,7a2.11,2.11,0,0,1,3,3l-2.71,2.71a2.11,2.11,0,0,1-3,0,2.25,2.25,0,0,1-.46-.66L9.44,13.44a3.82,3.82,0,0,0,.5.62,4,4,0,0,0,5.71,0l2.71-2.71a4,4,0,1,0-5.71-5.71Z" />
</svg>