<svg id="Layer_1" data-name="Layer 1" xmlns="http://www.w3.org/2000/svg" viewBox="0 0 538.12 243.86"><defs><style>.cls-1{fill:#fff;}</style></defs><title>sppg-logo-white</title><path class="cls-1" d="M417.87,465.86v-68h34.33c13.28,0,26.34,6.48,26.34,21.59s-12.85,22.35-26.34,22.35h-20.3v24.08Zm46.75-46.21c0-5-3.56-8.75-14.58-8.75H431.91v17.82H450C461.06,428.72,464.62,424.19,464.62,419.65Z" transform="translate(-416.27 -222)"/><path class="cls-1" d="M499.61,465.86h-14v-68h14Z" transform="translate(-416.27 -222)"/><path class="cls-1" d="M566.55,465.86H553.7l-30.88-43.4v43.4h-14v-68h12.85l30.88,43.51V397.84h14Z" transform="translate(-416.27 -222)"/><path class="cls-1" d="M593.65,465.86v-55H573V397.84h55.39v13.06H607.69v55Z" transform="translate(-416.27 -222)"/><path class="cls-1" d="M722.68,449.24c-5.51,11.12-16.3,16.63-28.18,16.63-17.38,0-34.23-10.58-34.23-34,0-23.21,16.84-34,34.23-34,12.53,0,22.57,5,28.61,17L712.31,422c-3.35-7.34-9.72-11.12-17.82-11.12-12.52,0-20.19,8.64-20.19,20.95,0,12.63,7.34,20.95,20.19,20.95a16.11,16.11,0,0,0,14.14-8.1v-6.15H697.52V425.48h25.16Z" transform="translate(-416.27 -222)"/><path class="cls-1" d="M800.21,430.88c0,23.43-17,35-34.23,35s-34.23-11.55-34.23-35v-33h14v33c0,13.6,8.1,21.92,20.19,21.92s20.19-8.31,20.19-21.92v-33h14Z" transform="translate(-416.27 -222)"/><path class="cls-1" d="M822.88,465.86h-14v-68h14Z" transform="translate(-416.27 -222)"/><path class="cls-1" d="M891.77,431.85c0,22-13.5,34-37.14,34H832.06v-68h22.57C878.27,397.84,891.77,409.83,891.77,431.85ZM846.1,410.91V452.8h8.53c17.82,0,23.11-8.85,23.11-20.95s-5.29-20.95-23.11-20.95Z" transform="translate(-416.27 -222)"/><path class="cls-1" d="M954.39,410.91H912.83v13.93h32.82V437.9H912.83v14.9h41.57v13.06h-55.6v-68h55.6Z" transform="translate(-416.27 -222)"/><path class="cls-1" d="M652,369.62c-11.41,0-18.08-11.4-12.66-26,5-13.22,14.46-20.31,21.42-20.31,8.76,0,10.71,9.32,4.87,18.22a24.31,24.31,0,0,1-18.78,11.13c0,5.57,2.64,8.63,7.37,8.63,7.79,0,15.72-6.4,20-18.64.42-1.11,3.89-.56,3.48.56C672.45,358.35,663.41,369.62,652,369.62Zm-4.73-20.17c6.12-.56,11.27-4.17,14.74-9.18,4-6,2.92-11.27-.28-11.27-4.59-.14-9.88,5.7-13.08,15.16A33.46,33.46,0,0,0,647.28,349.45Z" transform="translate(-416.27 -222)"/><path class="cls-1" d="M679.68,323.72c4.31-13.63,5.29-13.77,7.23-14.88a25.56,25.56,0,0,1,9.46-2.5c1.53,0,.7,1-.56,3.62a145.19,145.19,0,0,0-6.12,13.77h4.59c1.67,0,.83,3.48-.7,3.48h-5.15L685,338.32c-5.15,17.25-4.17,23-.42,23s8.76-6,13.21-18.64c.42-1.11,4-.56,3.62.56-6,17-12.52,26.43-21.28,26.43s-10.85-10.43-4.73-31.57l3.2-10.85h-2.5c-1.53,0-.83-3.48.7-3.48Z" transform="translate(-416.27 -222)"/><path class="cls-1" d="M710,369.62c-11.41,0-18.08-11.4-12.66-26,5-13.22,14.46-20.31,21.42-20.31,8.76,0,10.71,9.32,4.87,18.22a24.31,24.31,0,0,1-18.78,11.13c0,5.57,2.64,8.63,7.37,8.63,7.79,0,15.72-6.4,20-18.64.42-1.11,3.89-.56,3.48.56C730.44,358.35,721.4,369.62,710,369.62Zm-4.73-20.17c6.12-.56,11.27-4.17,14.74-9.18,4-6,2.92-11.27-.28-11.27-4.59-.14-9.88,5.7-13.08,15.16A33.46,33.46,0,0,0,705.27,349.45Z" transform="translate(-416.27 -222)"/><path class="cls-1" d="M736.56,328.31a8.33,8.33,0,0,1-2.5-8.48c1.95-6.82,9-3.9,9-1.95,0,.69-1.67,4.31.7,6.81,3.06,2.92,8.62-1.11,11.4,1.67s.7,6.68-2.5,13.49c-5.56,11.68-8.35,21.42-4.31,21.42,3.34,0,7.37-6,11.82-18.64.42-1.11,4-.56,3.62.56-5.84,16.55-11.68,26.43-19.89,26.43-9.87,0-7.23-16.41-.28-32.27,1.11-2.51,2.09-4.45,2.92-6H746a16.29,16.29,0,0,1-6.26-1.11c-1.53,5-3.2,10.43-4.59,14.33-.83,2.5-4.31,1.81-3.48-.56C733.08,340,735,334,736.56,328.31Z" transform="translate(-416.27 -222)"/><path class="cls-1" d="M766.18,369.62c-6.54-.42-9.87-6.4-6.12-12.24,1.81-2.78,7-2.92,4.87-.14-2.09,3.06-1.11,5.84,2.36,5.84,2.78,0,5.7-3.48,6.12-8.21.83-10-4-18.64-4.59-24.9-1.95,4.59-3.76,9.6-5.42,14.46-1,2.5-4.31,1.67-3.48-.7,1.67-4.45,5.42-15.72,8.21-21.56,3.2-6.26,8.76-1.25,8.21.56-2.64,9.32,6.68,19.33,5.84,31.16L781.9,356A37.22,37.22,0,0,0,790,342.63c.42-1.11,3.89-.56,3.48.56-7.37,21.42-16.83,26.57-26.29,26.57C766.74,369.76,766.46,369.62,766.18,369.62Z" transform="translate(-416.27 -222)"/><path class="cls-1" d="M809.43,355.29a14.31,14.31,0,0,1-5.7-11.68c-.28-10.85,8.34-21.14,16.83-19.61,5.7,1.11,7.65,9.87,2.36,23.37-.83,1.95-1.53,3.62-2.5,5.42,4.73-.56,8.76-4.17,11-10.15.42-1.11,3.89-.56,3.48.56-3.2,9.18-10,13.91-17.25,14.33-4.73,7.23-11,12.38-18.08,12.38-9.32,0-15.3-8.48-8.48-31.85,9.87-33.8,10.43-35.89,14.6-38.11a25.56,25.56,0,0,1,9.46-2.5c1.53,0,.83,1-.42,3.62-4.45,9-6.4,14.88-13.91,37.28-6.68,19.89-6.4,24.9-2.36,24.9C801.51,363.22,805.82,360.3,809.43,355.29Zm-1.11-13.49c0,4.17,1.11,7.37,3.76,9.18a29.23,29.23,0,0,0,1.95-4.17c4.31-10.29,3.48-15.3,1.53-15.86C812.08,330.12,808.32,336.37,808.32,341.8Z" transform="translate(-416.27 -222)"/><path class="cls-1" d="M857.55,334.71c.83-2.64,1.67-5.43,2.78-8.49a3,3,0,0,1,2.23-2.22s8.76-1.39,7.65,1.81c-9.32,27.26-9.32,35.47-5.7,35.47,3.2,0,7.37-6,11.82-18.64.42-1.11,3.89-.56,3.48.56-5.84,16.55-11.68,26.43-19.89,26.43-6,0-8.21-5.7-6.54-17.11-5.56,12.24-10.71,17.11-16.83,17.11-8.9,0-11.4-11.68,0-43.4a3,3,0,0,1,2.23-2.22s8.9-1.39,7.65,1.81c-10.15,27.68-10.71,35.47-6.68,35.47,5,0,11.27-7.79,17.8-26.43Z" transform="translate(-416.27 -222)"/><path class="cls-1" d="M880.63,328.31a8.33,8.33,0,0,1-2.5-8.48c1.95-6.82,9-3.9,9-1.95,0,.69-1.67,4.31.7,6.81,3.06,2.92,8.62-1.11,11.4,1.67s.7,6.68-2.5,13.49c-5.56,11.68-8.35,21.42-4.31,21.42,3.34,0,7.37-6,11.82-18.64.42-1.11,4-.56,3.62.56-5.84,16.55-11.68,26.43-19.89,26.43-9.87,0-7.23-16.41-.28-32.27,1.11-2.51,2.09-4.45,2.92-6h-.56a16.29,16.29,0,0,1-6.26-1.11c-1.53,5-3.2,10.43-4.59,14.33-.83,2.5-4.31,1.81-3.48-.56C877.16,340,879.1,334,880.63,328.31Z" transform="translate(-416.27 -222)"/><path class="cls-1" d="M918.6,372.68a94.7,94.7,0,0,0,7-17.39c-4.87,9.32-9.88,14.33-15.86,14.33-7.37,0-11.41-11-5.84-26,7.23-19.47,22.25-25.59,29.9-16.27a7.4,7.4,0,0,1,5-3.34c3.76-.7,6.82-.56,6.26,1.81-6.68,20.72-12.52,35-17.8,44.79,11.82-4.31,15.72-14.74,20.45-28,.42-1.11,3.89-.56,3.48.56-7.09,20.17-12,29.21-26.71,32.13-6.26,9.74-12,13.35-18.08,13.35-13.35,0-12.94-15.72,6-15.72C914.57,373,916.66,372.82,918.6,372.68Zm-2.36,3.62c-1.67,0-3.34.14-5,.14-8.9,0-9.74,6.12-4,5.43C910.54,381.44,913.46,379.77,916.24,376.29ZM932.1,332.2l.28-.69c-4.87-6.12-14-2.51-19.2,12.66-3.62,10.43-3.48,17.11,0,17.11C918.32,361.27,926.25,348.62,932.1,332.2Z" transform="translate(-416.27 -222)"/><path class="cls-1" d="M520.3,335.93c-5.58,23-29.06,39.53-59.75,39.53-37,0-52.55-27.9-40-51.62,9.53-18.6,42.55-25.34,57.89-3.72,4.19,5.81.7,8.14-.93,6.51-14.42-14.42-37.9-10.7-46,3-10,17.44,3.49,32.78,25.81,33.95,21.16.93,40.92-10.7,46-28.37,9.07-31.62-67.89-40.69-53-82.77,7-19.76,34.88-30.46,56.5-30.46,24.88,0,37.43,14.65,34.64,30.23-1.86,10-9.77,19.76-21.86,24.88-11.63,5.11-26-1.4-15.81-4.65,13-4.19,22.09-12.56,23.25-21.86,1.4-10-4.65-19.53-20-19.53-17.21,0-34.41,8.84-40.22,26C457.52,284.55,528.67,300.12,520.3,335.93Z" transform="translate(-416.27 -222)"/><path class="cls-1" d="M630.85,258.45c5.81-3,18.6-5.12,21.62-3.26,1.63.93-3.72,4.42-12.32,25.81-3.72,9.53-7.44,20.92-11.63,34.41,19.53,1.63,45.57-8.14,50.22-33.25,3-16.51-6-34.88-38.36-34.88-27.67,0-53.24,16.28-59.06,39.76-3.49,14.65,2.09,29.76,14.65,33.48,6,1.63.7,6.51-7.21,6.51-15.35,0-32.78-18.13-24.41-45.57S607.6,238,645,238c39.76,0,56.5,29.76,51.62,49.29-6.74,27.67-43.94,38.36-70.68,36-7.67,24.65-11.39,39.06-12.79,44.18-.93,2.56-.93,3.49-6.28,4-7.44.47-10.23.23-9.3-3.49,2.79-10.23,8.84-32.78,14-49.75C621.32,284.72,627.36,260.31,630.85,258.45Z" transform="translate(-416.27 -222)"/><path class="cls-1" d="M532.39,324.17c4.31-13.63,5.29-13.77,7.23-14.88a25.56,25.56,0,0,1,9.46-2.5c1.53,0,.7,1-.56,3.62a145.19,145.19,0,0,0-6.12,13.77H547c1.67,0,.83,3.48-.7,3.48h-5.15l-3.48,11.13c-5.15,17.25-4.17,23-.42,23s8.76-6,13.21-18.64c.42-1.11,4-.56,3.62.56-6,17-12.52,26.43-21.28,26.43s-10.85-10.43-4.73-31.57l3.2-10.85h-2.5c-1.53,0-.83-3.48.7-3.48Z" transform="translate(-416.27 -222)"/></svg>