<svg id="Layer_1" data-name="Layer 1" xmlns="http://www.w3.org/2000/svg" xmlns:xlink="http://www.w3.org/1999/xlink" viewBox="0 0 538.37 163.88"><defs><style>.cls-1{fill:#68390e;}.cls-1,.cls-12,.cls-15,.cls-16,.cls-17,.cls-20,.cls-22,.cls-23,.cls-24,.cls-3,.cls-4,.cls-5,.cls-6,.cls-7,.cls-8{stroke:#000;stroke-miterlimit:10;stroke-width:0.5px;}.cls-14,.cls-2,.cls-21{opacity:0.59;}.cls-2{fill:url(#linear-gradient);}.cls-3{fill:#fff;}.cls-4{fill:#685241;}.cls-5{fill:#2c8fb2;}.cls-6{fill:url(#linear-gradient-2);}.cls-7{fill:url(#linear-gradient-3);}.cls-8{fill:#f2d146;}.cls-18,.cls-25,.cls-9{opacity:0.39;}.cls-9{fill:url(#linear-gradient-4);}.cls-10{opacity:0.49;}.cls-11{fill:url(#linear-gradient-5);}.cls-12{fill:#2eafa8;}.cls-13,.cls-20{fill:#f49f44;}.cls-14{fill:url(#linear-gradient-6);}.cls-15{fill:url(#linear-gradient-7);}.cls-16{fill:url(#linear-gradient-8);}.cls-17{fill:#71d9ff;}.cls-18{fill:url(#linear-gradient-9);}.cls-19{fill:url(#linear-gradient-10);}.cls-21{fill:url(#linear-gradient-11);}.cls-22{fill:url(#linear-gradient-12);}.cls-23{fill:url(#linear-gradient-13);}.cls-24{fill:#e85605;}.cls-25{fill:url(#linear-gradient-14);}.cls-26{fill:url(#linear-gradient-15);}</style><linearGradient id="linear-gradient" x1="871.14" y1="325.89" x2="871.14" y2="362.99" gradientUnits="userSpaceOnUse"><stop offset="0" stop-color="#fff"/><stop offset="0" stop-color="#fff"/><stop offset="0.32" stop-color="#fff" stop-opacity="0.58"/><stop offset="0.58" stop-color="#fff" stop-opacity="0.27"/><stop offset="0.76" stop-color="#fff" stop-opacity="0.07"/><stop offset="0.85" stop-color="#fff" stop-opacity="0"/></linearGradient><linearGradient id="linear-gradient-2" x1="934.02" y1="390.57" x2="934.02" y2="386.26" gradientUnits="userSpaceOnUse"><stop offset="0" stop-color="#333"/><stop offset="0.1" stop-color="#3a3a3a"/><stop offset="0.25" stop-color="#4c4c4c"/><stop offset="0.42" stop-color="#6a6a6a"/><stop offset="0.61" stop-color="#949494"/><stop offset="0.82" stop-color="#c9c9c9"/><stop offset="1" stop-color="#fff"/></linearGradient><linearGradient id="linear-gradient-3" x1="920.87" y1="307.44" x2="947.17" y2="307.44" gradientUnits="userSpaceOnUse"><stop offset="0" stop-color="#fff"/><stop offset="0.03" stop-color="#eee"/><stop offset="0.1" stop-color="silver"/><stop offset="0.19" stop-color="#777"/><stop offset="0.3" stop-color="#141414"/><stop offset="0.32"/><stop offset="0.41" stop-color="#2a2a2a"/><stop offset="0.61" stop-color="#929292"/><stop offset="0.66" stop-color="#aeaeae"/><stop offset="0.76" stop-color="#7f7f7f"/><stop offset="0.98" stop-color="#090909"/><stop offset="1"/></linearGradient><linearGradient id="linear-gradient-4" x1="922.53" y1="309.78" x2="945.44" y2="309.78" gradientUnits="userSpaceOnUse"><stop offset="0" stop-color="#fff" stop-opacity="0"/><stop offset="0.04" stop-color="#fff" stop-opacity="0.14"/><stop offset="0.11" stop-color="#fff" stop-opacity="0.37"/><stop offset="0.18" stop-color="#fff" stop-opacity="0.56"/><stop offset="0.26" stop-color="#fff" stop-opacity="0.72"/><stop offset="0.32" stop-color="#fff" stop-opacity="0.84"/><stop offset="0.39" stop-color="#fff" stop-opacity="0.93"/><stop offset="0.45" stop-color="#fff" stop-opacity="0.98"/><stop offset="0.51" stop-color="#fff"/><stop offset="0.56" stop-color="#fff" stop-opacity="0.98"/><stop offset="0.62" stop-color="#fff" stop-opacity="0.91"/><stop offset="0.69" stop-color="#fff" stop-opacity="0.8"/><stop offset="0.77" stop-color="#fff" stop-opacity="0.64"/><stop offset="0.85" stop-color="#fff" stop-opacity="0.44"/><stop offset="0.94" stop-color="#fff" stop-opacity="0.2"/><stop offset="1" stop-color="#fff" stop-opacity="0"/></linearGradient><linearGradient id="linear-gradient-5" x1="933.99" y1="314.11" x2="933.99" y2="316.29" gradientUnits="userSpaceOnUse"><stop offset="0" stop-color="#fff"/><stop offset="0.1" stop-color="#eff" stop-opacity="0.93"/><stop offset="0.3" stop-color="#c0ffff" stop-opacity="0.75"/><stop offset="0.58" stop-color="#7ff" stop-opacity="0.47"/><stop offset="0.93" stop-color="#14ffff" stop-opacity="0.08"/><stop offset="1" stop-color="aqua" stop-opacity="0"/></linearGradient><linearGradient id="linear-gradient-6" x1="773.58" y1="325.89" x2="773.58" y2="362.99" xlink:href="#linear-gradient"/><linearGradient id="linear-gradient-7" x1="836.46" y1="390.57" x2="836.46" y2="386.26" xlink:href="#linear-gradient-2"/><linearGradient id="linear-gradient-8" x1="823.3" y1="307.44" x2="849.61" y2="307.44" xlink:href="#linear-gradient-3"/><linearGradient id="linear-gradient-9" x1="824.97" y1="309.78" x2="847.88" y2="309.78" xlink:href="#linear-gradient-4"/><linearGradient id="linear-gradient-10" x1="836.42" y1="314.11" x2="836.42" y2="316.29" xlink:href="#linear-gradient-5"/><linearGradient id="linear-gradient-11" x1="671.71" y1="324.54" x2="671.71" y2="361.64" xlink:href="#linear-gradient"/><linearGradient id="linear-gradient-12" x1="734.58" y1="389.22" x2="734.58" y2="384.91" xlink:href="#linear-gradient-2"/><linearGradient id="linear-gradient-13" x1="721.43" y1="306.09" x2="747.74" y2="306.09" xlink:href="#linear-gradient-3"/><linearGradient id="linear-gradient-14" x1="723.1" y1="308.43" x2="746.01" y2="308.43" xlink:href="#linear-gradient-4"/><linearGradient id="linear-gradient-15" x1="734.55" y1="312.76" x2="734.55" y2="314.94" xlink:href="#linear-gradient-5"/></defs><title>Sppg-logo</title><path class="cls-1" d="M906.5,320.88s2.64,10.62-2.42,27.79-3.26,37.49-3.26,37.49-15,8.47-30.1,0c-.1,0,1.8-20.32-3.26-37.49s-2.38-27.79-2.38-27.79S883.57,321,906.5,320.88Z" transform="translate(-415.27 -302.23)"/><path class="cls-2" d="M867.29,325.89c-.07.08,2.93,1.14,8.05,1.63C869.93,334.35,873,363,873,363a54.46,54.46,0,0,0-2.45-11.11C868.85,347.09,865.93,334.85,867.29,325.89Z" transform="translate(-415.27 -302.23)"/><path class="cls-3" d="M904.9,312.31a4.78,4.78,0,0,0-1.1.13,7.63,7.63,0,0,0-7.09-4.87,7.54,7.54,0,0,0-4.85,1.76,10.55,10.55,0,0,0-9.06-5.5,10.72,10.72,0,0,0-9.62,6.59,6,6,0,0,0-2-.36,6.08,6.08,0,0,0-6.06,6.11,6.15,6.15,0,0,0,.3,1.89l-.3,0a4,4,0,1,0,3.59,4c0-.1,0-.19,0-.29a6,6,0,0,0,4.83.06,10.62,10.62,0,0,0,9.32,6,9.89,9.89,0,0,0,5.16-1.46v10.57a1.24,1.24,0,1,0,2.47,0V324.25a12,12,0,0,0,1.81-2.68,7.6,7.6,0,0,0,1.78,1v26.06a2.37,2.37,0,1,0,4.71,0V322.75a7.56,7.56,0,0,0,2.06-.92,5.09,5.09,0,0,0,4.11,2.2c2.91,0,5.27-2.62,5.27-5.86S907.81,312.31,904.9,312.31Z" transform="translate(-415.27 -302.23)"/><path class="cls-4" d="M870.81,383.47s-.81,1.85-.14,2.93c0,0,12.71,9.7,30.16,0a2.87,2.87,0,0,0-.14-2.93S885.28,392.39,870.81,383.47Z" transform="translate(-415.27 -302.23)"/><path class="cls-5" d="M416.87,465.86v-68h34.33c13.28,0,26.34,6.48,26.34,21.59s-12.85,22.35-26.34,22.35h-20.3v24.08Zm46.75-46.21c0-5-3.56-8.75-14.58-8.75H430.91v17.82H449C460.06,428.72,463.62,424.19,463.62,419.65Z" transform="translate(-415.27 -302.23)"/><path class="cls-5" d="M498.61,465.86h-14v-68h14Z" transform="translate(-415.27 -302.23)"/><path class="cls-5" d="M565.55,465.86H552.7l-30.88-43.4v43.4h-14v-68h12.85l30.88,43.51V397.84h14Z" transform="translate(-415.27 -302.23)"/><path class="cls-5" d="M592.65,465.86v-55H572V397.84h55.39v13.06H606.69v55Z" transform="translate(-415.27 -302.23)"/><path class="cls-5" d="M721.68,449.24c-5.51,11.12-16.3,16.63-28.18,16.63-17.38,0-34.23-10.58-34.23-34,0-23.21,16.84-34,34.23-34,12.53,0,22.57,5,28.61,17L711.31,422c-3.35-7.34-9.72-11.12-17.82-11.12-12.52,0-20.19,8.64-20.19,20.95,0,12.63,7.34,20.95,20.19,20.95a16.11,16.11,0,0,0,14.14-8.1v-6.15H696.52V425.48h25.16Z" transform="translate(-415.27 -302.23)"/><path class="cls-5" d="M799.21,430.88c0,23.43-17,35-34.23,35s-34.23-11.55-34.23-35v-33h14v33c0,13.6,8.1,21.92,20.19,21.92s20.19-8.31,20.19-21.92v-33h14Z" transform="translate(-415.27 -302.23)"/><path class="cls-5" d="M821.88,465.86h-14v-68h14Z" transform="translate(-415.27 -302.23)"/><path class="cls-5" d="M890.77,431.85c0,22-13.5,34-37.14,34H831.06v-68h22.57C877.27,397.84,890.77,409.83,890.77,431.85ZM845.1,410.91V452.8h8.53c17.82,0,23.11-8.85,23.11-20.95s-5.29-20.95-23.11-20.95Z" transform="translate(-415.27 -302.23)"/><path class="cls-5" d="M953.39,410.91H911.83v13.93h32.82V437.9H911.83v14.9h41.57v13.06h-55.6v-68h55.6Z" transform="translate(-415.27 -302.23)"/><path class="cls-6" d="M922,389.32a58.94,58.94,0,0,0,23.91,0c-.13-.4.26-.93.26-.93a4.25,4.25,0,0,1,2.46-2.13l-29.21.13a3.43,3.43,0,0,1,2.2,2S922.13,388.93,922,389.32Z" transform="translate(-415.27 -302.23)"/><path class="cls-7" d="M921.92,307.12l-1.06,1.47.4.53,25.78-.27.13-.53-.79-1.2S934,304.06,921.92,307.12Z" transform="translate(-415.27 -302.23)"/><path class="cls-8" d="M918.27,315.73s-.07,69.73-.13,69.66a1,1,0,0,0,.73.87,143.59,143.59,0,0,0,30.5,0c.53-.13.53-.8.53-.8l-.07-69.73-3.2-5.73.13-.67a43,43,0,0,0-25.44,0l.2.6Z" transform="translate(-415.27 -302.23)"/><path class="cls-9" d="M922.53,310.45s9.19-2.8,22.91-.31Z" transform="translate(-415.27 -302.23)"/><g class="cls-10"><path class="cls-11" d="M921.12,315.75a26.8,26.8,0,0,1,3.13-1q1.6-.34,3.21-.6a52.78,52.78,0,0,1,6.52-.46,53.7,53.7,0,0,1,6.51.51c1.08.16,2.15.38,3.21.6s2.11.56,3.14.91l0,.1c-2.12-.35-4.25-.67-6.4-.84s-4.3-.27-6.45-.29-4.3.07-6.45.24a52.19,52.19,0,0,0-6.39.89Z" transform="translate(-415.27 -302.23)"/></g><path class="cls-12" d="M949.72,377.44c.35.31-30.3-28.1.19-56.2C949.91,321.24,949.72,377.44,949.72,377.44Z" transform="translate(-415.27 -302.23)"/><path class="cls-13" d="M522.7,385c-5.2,0-8.24-5.2-5.77-11.85,2.28-6,6.59-9.25,9.76-9.25,4,0,4.88,4.25,2.22,8.3a11.08,11.08,0,0,1-8.56,5.07c0,2.54,1.2,3.93,3.36,3.93,3.55,0,7.16-2.92,9.13-8.49.19-.51,1.77-.25,1.58.25C532,379.86,527.9,385,522.7,385Zm-2.16-9.19a9.3,9.3,0,0,0,6.72-4.18c1.84-2.73,1.33-5.13-.13-5.13-2.09-.06-4.5,2.6-6,6.91A15.25,15.25,0,0,0,520.54,375.8Z" transform="translate(-415.27 -302.23)"/><path class="cls-13" d="M535.31,364.07c2-6.21,2.41-6.28,3.3-6.78a11.65,11.65,0,0,1,4.31-1.14c.7,0,.32.44-.25,1.65a66.17,66.17,0,0,0-2.79,6.28H542c.76,0,.38,1.58-.32,1.58H539.3l-1.58,5.07c-2.35,7.86-1.9,10.46-.19,10.46s4-2.73,6-8.49c.19-.51,1.84-.25,1.65.25-2.73,7.73-5.71,12-9.7,12s-4.94-4.75-2.15-14.39l1.46-4.94h-1.14c-.7,0-.38-1.58.32-1.58Z" transform="translate(-415.27 -302.23)"/><path class="cls-13" d="M549.13,385c-5.2,0-8.24-5.2-5.77-11.85,2.28-6,6.59-9.25,9.76-9.25,4,0,4.88,4.25,2.22,8.3a11.08,11.08,0,0,1-8.56,5.07c0,2.54,1.2,3.93,3.36,3.93,3.55,0,7.16-2.92,9.13-8.49.19-.51,1.77-.25,1.58.25C558.44,379.86,554.32,385,549.13,385ZM547,375.8a9.3,9.3,0,0,0,6.72-4.18c1.84-2.73,1.33-5.13-.13-5.13-2.09-.06-4.5,2.6-6,6.91A15.25,15.25,0,0,0,547,375.8Z" transform="translate(-415.27 -302.23)"/><path class="cls-13" d="M561.23,366.16a3.8,3.8,0,0,1-1.14-3.87c.89-3.11,4.12-1.78,4.12-.89,0,.32-.76,2,.32,3.11,1.39,1.33,3.93-.51,5.2.76s.32,3-1.14,6.15c-2.54,5.32-3.8,9.76-2,9.76,1.52,0,3.36-2.73,5.39-8.49.19-.51,1.84-.25,1.65.25-2.66,7.54-5.32,12-9.06,12-4.5,0-3.3-7.48-.13-14.71.51-1.14,1-2,1.33-2.73h-.25a7.42,7.42,0,0,1-2.85-.51c-.7,2.28-1.46,4.75-2.09,6.53-.38,1.14-2,.82-1.58-.25C559.65,371.49,560.53,368.76,561.23,366.16Z" transform="translate(-415.27 -302.23)"/><path class="cls-13" d="M574.73,385c-3-.19-4.5-2.92-2.79-5.58.82-1.27,3.17-1.33,2.22-.06s-.51,2.66,1.08,2.66c1.27,0,2.6-1.58,2.79-3.74.38-4.56-1.84-8.49-2.09-11.35-.89,2.09-1.71,4.37-2.47,6.59-.44,1.14-2,.76-1.58-.32.76-2,2.47-7.16,3.74-9.82,1.46-2.85,4-.57,3.74.25-1.2,4.25,3,8.81,2.66,14.2l-.13,1a17,17,0,0,0,3.68-6.08c.19-.51,1.77-.25,1.58.25-3.36,9.76-7.67,12.11-12,12.11C575,385.05,574.86,385,574.73,385Z" transform="translate(-415.27 -302.23)"/><path class="cls-13" d="M594.44,378.46a6.52,6.52,0,0,1-2.6-5.32c-.13-4.94,3.8-9.63,7.67-8.94,2.6.51,3.49,4.5,1.08,10.65-.38.89-.7,1.65-1.14,2.47,2.16-.25,4-1.9,5-4.63.19-.51,1.77-.25,1.58.25-1.46,4.18-4.56,6.34-7.86,6.53-2.16,3.3-5,5.64-8.24,5.64-4.25,0-7-3.87-3.87-14.52,4.5-15.4,4.75-16.35,6.66-17.37a11.65,11.65,0,0,1,4.31-1.14c.7,0,.38.44-.19,1.65-2,4.12-2.92,6.78-6.34,17-3,9.06-2.92,11.35-1.08,11.35C590.83,382.07,592.79,380.74,594.44,378.46Zm-.51-6.15c0,1.9.51,3.36,1.71,4.18a13.32,13.32,0,0,0,.89-1.9c2-4.69,1.58-7,.7-7.23C595.65,367,593.93,369.84,593.93,372.31Z" transform="translate(-415.27 -302.23)"/><path class="cls-13" d="M616.37,369.08c.38-1.21.76-2.47,1.27-3.87a1.37,1.37,0,0,1,1-1s4-.63,3.49.82c-4.25,12.42-4.25,16.16-2.6,16.16,1.46,0,3.36-2.73,5.39-8.49.19-.51,1.77-.25,1.58.25-2.66,7.54-5.32,12-9.06,12-2.73,0-3.74-2.6-3-7.8-2.54,5.58-4.88,7.8-7.67,7.8-4.06,0-5.2-5.32,0-19.78a1.37,1.37,0,0,1,1-1s4.06-.63,3.49.82c-4.63,12.61-4.88,16.16-3,16.16,2.28,0,5.13-3.55,8.11-12Z" transform="translate(-415.27 -302.23)"/><path class="cls-13" d="M626.89,366.16a3.8,3.8,0,0,1-1.14-3.87c.89-3.11,4.12-1.78,4.12-.89,0,.32-.76,2,.32,3.11,1.39,1.33,3.93-.51,5.2.76s.32,3-1.14,6.15c-2.54,5.32-3.8,9.76-2,9.76,1.52,0,3.36-2.73,5.39-8.49.19-.51,1.84-.25,1.65.25-2.66,7.54-5.32,12-9.06,12-4.5,0-3.3-7.48-.13-14.71.51-1.14,1-2,1.33-2.73h-.25a7.42,7.42,0,0,1-2.85-.51c-.7,2.28-1.46,4.75-2.09,6.53-.38,1.14-2,.82-1.58-.25C625.3,371.49,626.19,368.76,626.89,366.16Z" transform="translate(-415.27 -302.23)"/><path class="cls-13" d="M644.19,386.38a43.16,43.16,0,0,0,3.17-7.92c-2.22,4.25-4.5,6.53-7.23,6.53-3.36,0-5.2-5-2.66-11.85,3.3-8.87,10.14-11.66,13.63-7.42a3.37,3.37,0,0,1,2.28-1.52c1.71-.32,3.11-.25,2.85.82-3,9.44-5.7,16-8.11,20.41,5.39-2,7.16-6.72,9.32-12.74.19-.51,1.77-.25,1.58.25-3.23,9.19-5.45,13.31-12.17,14.64-2.85,4.44-5.45,6.08-8.24,6.08-6.08,0-5.9-7.16,2.73-7.16C642.35,386.51,643.3,386.45,644.19,386.38ZM643.11,388c-.76,0-1.52.06-2.28.06-4.06,0-4.44,2.79-1.84,2.47A6.12,6.12,0,0,0,643.11,388Zm7.23-20.09.13-.32c-2.22-2.79-6.4-1.14-8.75,5.77-1.65,4.75-1.58,7.8,0,7.8C644.06,381.19,647.68,375.42,650.34,367.94Z" transform="translate(-415.27 -302.23)"/><path class="cls-13" d="M462.68,369.64c-2.54,10.49-13.24,18-27.23,18-16.85,0-23.95-12.71-18.22-23.52,4.34-8.48,19.39-11.55,26.38-1.7,1.91,2.65.32,3.71-.42,3-6.57-6.57-17.27-4.87-21,1.38-4.56,7.95,1.59,14.94,11.76,15.47,9.64.42,18.65-4.87,21-12.93,4.13-14.41-30.94-18.54-24.16-37.72,3.18-9,15.89-13.88,25.75-13.88,11.34,0,17.06,6.67,15.79,13.77-.85,4.56-4.45,9-10,11.34-5.3,2.33-11.87-.64-7.21-2.12,5.93-1.91,10.07-5.72,10.6-10,.64-4.56-2.12-8.9-9.11-8.9-7.84,0-15.68,4-18.33,11.87C434.07,346.22,466.49,353.32,462.68,369.64Z" transform="translate(-415.27 -302.23)"/><path class="cls-13" d="M513.06,334.33c2.65-1.38,8.48-2.33,9.85-1.48.74.42-1.7,2-5.62,11.76-1.7,4.34-3.39,9.54-5.3,15.68,8.9.74,20.77-3.71,22.89-15.15,1.38-7.52-2.75-15.89-17.48-15.89-12.61,0-24.26,7.42-26.91,18.12-1.59,6.68,1,13.56,6.68,15.26,2.75.74.32,3-3.28,3-7,0-14.94-8.26-11.13-20.77S502.46,325,519.52,325c18.12,0,25.75,13.56,23.52,22.46-3.07,12.61-20,17.48-32.21,16.42-3.5,11.23-5.19,17.8-5.83,20.13-.42,1.17-.42,1.59-2.86,1.8-3.39.21-4.66.11-4.24-1.59,1.27-4.66,4-14.94,6.36-22.67C508.71,346.3,511.47,335.17,513.06,334.33Z" transform="translate(-415.27 -302.23)"/><path class="cls-13" d="M468.19,364.28c2-6.21,2.41-6.28,3.3-6.78a11.65,11.65,0,0,1,4.31-1.14c.7,0,.32.44-.25,1.65a66.17,66.17,0,0,0-2.79,6.28h2.09c.76,0,.38,1.58-.32,1.58h-2.35l-1.58,5.07c-2.35,7.86-1.9,10.46-.19,10.46s4-2.73,6-8.49c.19-.51,1.84-.25,1.65.25-2.73,7.73-5.71,12-9.7,12s-4.94-4.75-2.15-14.39l1.46-4.94h-1.14c-.7,0-.38-1.58.32-1.58Z" transform="translate(-415.27 -302.23)"/><path class="cls-8" d="M808.93,320.88s2.64,10.62-2.42,27.79-3.26,37.49-3.26,37.49-15,8.47-30.1,0c-.1,0,1.8-20.32-3.26-37.49s-2.38-27.79-2.38-27.79S786,321,808.93,320.88Z" transform="translate(-415.27 -302.23)"/><path class="cls-14" d="M769.73,325.89c-.07.08,2.93,1.14,8.05,1.63-5.42,6.83-2.34,35.48-2.34,35.48A54.46,54.46,0,0,0,773,351.88C771.29,347.09,768.36,334.85,769.73,325.89Z" transform="translate(-415.27 -302.23)"/><path class="cls-3" d="M807.33,312.31a4.78,4.78,0,0,0-1.1.13,7.63,7.63,0,0,0-7.09-4.87,7.54,7.54,0,0,0-4.85,1.76,10.55,10.55,0,0,0-9.06-5.5,10.72,10.72,0,0,0-9.62,6.59,6,6,0,0,0-2-.36,6.08,6.08,0,0,0-6.06,6.11,6.15,6.15,0,0,0,.3,1.89l-.3,0a4,4,0,1,0,3.59,4c0-.1,0-.19,0-.29a6,6,0,0,0,4.83.06,10.62,10.62,0,0,0,9.32,6,9.89,9.89,0,0,0,5.16-1.46v10.57a1.24,1.24,0,1,0,2.47,0V324.25a12,12,0,0,0,1.81-2.68,7.6,7.6,0,0,0,1.78,1v26.06a2.37,2.37,0,1,0,4.71,0V322.75a7.56,7.56,0,0,0,2.06-.92,5.09,5.09,0,0,0,4.11,2.2c2.91,0,5.27-2.62,5.27-5.86S810.24,312.31,807.33,312.31Z" transform="translate(-415.27 -302.23)"/><path class="cls-8" d="M773.25,383.47s-.81,1.85-.14,2.93c0,0,12.71,9.7,30.16,0a2.87,2.87,0,0,0-.14-2.93S787.72,392.39,773.25,383.47Z" transform="translate(-415.27 -302.23)"/><path class="cls-15" d="M824.44,389.32a58.94,58.94,0,0,0,23.91,0c-.13-.4.26-.93.26-.93a4.25,4.25,0,0,1,2.46-2.13l-29.21.13a3.43,3.43,0,0,1,2.2,2S824.57,388.93,824.44,389.32Z" transform="translate(-415.27 -302.23)"/><path class="cls-16" d="M824.36,307.12l-1.06,1.47.4.53,25.78-.27.13-.53-.79-1.2S836.39,304.06,824.36,307.12Z" transform="translate(-415.27 -302.23)"/><path class="cls-17" d="M820.71,315.73s-.07,69.73-.13,69.66a1,1,0,0,0,.73.87,143.59,143.59,0,0,0,30.5,0c.53-.13.53-.8.53-.8l-.07-69.73-3.2-5.73.13-.67a43,43,0,0,0-25.44,0l.2.6Z" transform="translate(-415.27 -302.23)"/><path class="cls-18" d="M825,310.45s9.19-2.8,22.91-.31Z" transform="translate(-415.27 -302.23)"/><g class="cls-10"><path class="cls-19" d="M823.56,315.75a26.8,26.8,0,0,1,3.13-1q1.6-.34,3.21-.6a52.78,52.78,0,0,1,6.52-.46,53.7,53.7,0,0,1,6.51.51c1.08.16,2.15.38,3.21.6s2.11.56,3.14.91l0,.1c-2.12-.35-4.25-.67-6.4-.84s-4.3-.27-6.45-.29-4.3.07-6.45.24a52.19,52.19,0,0,0-6.39.89Z" transform="translate(-415.27 -302.23)"/></g><path class="cls-5" d="M852.15,377.44c.35.31-30.3-28.1.19-56.2C852.35,321.24,852.15,377.44,852.15,377.44Z" transform="translate(-415.27 -302.23)"/><path class="cls-20" d="M707.06,319.53s2.64,10.62-2.42,27.79-3.26,37.49-3.26,37.49-15,8.47-30.1,0c-.1,0,1.8-20.32-3.26-37.49s-2.38-27.79-2.38-27.79S684.13,319.61,707.06,319.53Z" transform="translate(-415.27 -302.23)"/><path class="cls-21" d="M667.86,324.54c-.07.08,2.93,1.14,8.05,1.63-5.42,6.83-2.34,35.48-2.34,35.48a54.46,54.46,0,0,0-2.45-11.11C669.42,345.74,666.49,333.5,667.86,324.54Z" transform="translate(-415.27 -302.23)"/><path class="cls-3" d="M705.46,311a4.78,4.78,0,0,0-1.1.13,7.63,7.63,0,0,0-7.09-4.87,7.54,7.54,0,0,0-4.85,1.76,10.55,10.55,0,0,0-9.06-5.5,10.72,10.72,0,0,0-9.62,6.59,6,6,0,0,0-2-.36,6.08,6.08,0,0,0-6.06,6.11,6.15,6.15,0,0,0,.3,1.89l-.3,0a4,4,0,1,0,3.59,4c0-.1,0-.19,0-.29a6,6,0,0,0,4.83.06,10.62,10.62,0,0,0,9.32,6,9.89,9.89,0,0,0,5.16-1.46v10.57a1.24,1.24,0,1,0,2.47,0V322.9a12,12,0,0,0,1.81-2.68,7.6,7.6,0,0,0,1.78,1v26.06a2.37,2.37,0,1,0,4.71,0V321.4a7.56,7.56,0,0,0,2.06-.92,5.09,5.09,0,0,0,4.11,2.2c2.91,0,5.27-2.62,5.27-5.86S708.37,311,705.46,311Z" transform="translate(-415.27 -302.23)"/><path class="cls-20" d="M671.38,382.12s-.81,1.85-.14,2.93c0,0,12.71,9.7,30.16,0a2.87,2.87,0,0,0-.14-2.93S685.85,391,671.38,382.12Z" transform="translate(-415.27 -302.23)"/><path class="cls-22" d="M722.56,388a58.94,58.94,0,0,0,23.91,0c-.13-.4.26-.93.26-.93a4.25,4.25,0,0,1,2.46-2.13L720,385a3.43,3.43,0,0,1,2.2,2S722.69,387.57,722.56,388Z" transform="translate(-415.27 -302.23)"/><path class="cls-23" d="M722.49,305.77l-1.06,1.47.4.53,25.78-.27.13-.53-.79-1.2S734.52,302.71,722.49,305.77Z" transform="translate(-415.27 -302.23)"/><path class="cls-24" d="M718.83,314.38s-.07,69.73-.13,69.66a1,1,0,0,0,.73.87,143.59,143.59,0,0,0,30.5,0c.53-.13.53-.8.53-.8l-.07-69.73-3.2-5.73.13-.67a43,43,0,0,0-25.44,0l.2.6Z" transform="translate(-415.27 -302.23)"/><path class="cls-25" d="M723.1,309.1s9.19-2.8,22.91-.31Z" transform="translate(-415.27 -302.23)"/><g class="cls-10"><path class="cls-26" d="M721.69,314.4a26.8,26.8,0,0,1,3.13-1q1.6-.34,3.21-.6a52.78,52.78,0,0,1,6.52-.46,53.7,53.7,0,0,1,6.51.51c1.08.16,2.15.38,3.21.6s2.11.56,3.14.91l0,.1c-2.12-.35-4.25-.67-6.4-.84s-4.3-.27-6.45-.29-4.3.07-6.45.24a52.19,52.19,0,0,0-6.39.89Z" transform="translate(-415.27 -302.23)"/></g><path class="cls-8" d="M750.28,376.09c.35.31-30.3-28.1.19-56.2C750.48,319.89,750.28,376.09,750.28,376.09Z" transform="translate(-415.27 -302.23)"/></svg>